<svg width="52" height="52" viewBox="0 0 52 52" fill="none" xmlns="http://www.w3.org/2000/svg">
<path fill-rule="evenodd" clip-rule="evenodd" d="M26 0C11.6406 0 0 11.6406 0 26C0 40.3594 11.6406 52 26 52C40.3594 52 52 40.3594 52 26C52 11.6406 40.3594 0 26 0Z" fill="#EF3E3E"/>
<path d="M22.75 35.75C22.75 33.9551 24.1995 32.5 25.9875 32.5C27.7756 32.5 29.2251 33.9551 29.2251 35.75C29.2251 37.5449 27.7756 39 25.9875 39C24.1995 39 22.75 37.5449 22.75 35.75Z" fill="white"/>
<path d="M23.0672 16.2339C22.8947 14.5024 24.2491 13 25.9826 13C27.716 13 29.0704 14.5024 28.898 16.2339L27.7624 27.6331C27.671 28.551 26.9015 29.25 25.9826 29.25C25.0636 29.25 24.2942 28.551 24.2027 27.6331L23.0672 16.2339Z" fill="white"/>
</svg>
