<svg width="55" height="54" viewBox="0 0 55 54" fill="none" xmlns="http://www.w3.org/2000/svg">
<path d="M27.4997 53.6673C42.1663 53.6673 54.1663 41.6673 54.1663 27.0007C54.1663 12.334 42.1663 0.333984 27.4997 0.333984C12.833 0.333984 0.833008 12.334 0.833008 27.0007C0.833008 41.6673 12.833 53.6673 27.4997 53.6673Z" fill="#EEA012"/>
<path d="M24.5 36C24.5 34.3431 25.8431 33 27.5 33C29.1569 33 30.5 34.3431 30.5 36C30.5 37.6569 29.1569 39 27.5 39C25.8431 39 24.5 37.6569 24.5 36Z" fill="white"/>
<path d="M24.7939 17.9851C24.6341 16.3869 25.8891 15 27.4954 15C29.1016 15 30.3567 16.3869 30.1969 17.9851L29.1446 28.5074C29.0599 29.3547 28.3469 30 27.4954 30C26.6438 30 25.9309 29.3548 25.8461 28.5074L24.7939 17.9851Z" fill="white"/>
</svg>
